<svg width="1280" height="832" viewBox="0 0 1280 832" fill="none" xmlns="http://www.w3.org/2000/svg">
<g clip-path="url(#clip0_114_360)">
<path d="M514 -177C609.833 -132 908.732 112.8 825.132 200C720.632 309 -167.868 -109 315.632 431C702.432 863 508.798 895 363.632 893.5C242.588 883 -4.00024 811.6 -22.0002 610" stroke="#6017EC" stroke-width="50"/>
<path d="M552.321 -102C469.655 30 346.521 292.3 515.321 285.5C726.321 277 295.321 126 663.321 342.5C1031.32 559 500.821 -48 1082.32 83C1663.82 214 383.821 593 740.321 624.5C1025.52 649.7 900.154 800.667 819.321 852C755.821 884.5 630.121 963.9 635.321 1021.5C641.821 1093.5 507.821 915 720.821 1080.5C933.821 1246 1056.32 554.5 1434.82 881.5" stroke="#FEA4FE" stroke-opacity="0.5" stroke-width="30"/>
<path d="M308.387 520.107L257.608 612.029L362.562 615.609L264.577 653.385L342.675 723.59L243.332 689.545L258.032 793.526L203.815 703.589L148.238 792.692L164.515 688.946L64.6661 721.479L143.822 652.468L46.4217 613.208L151.418 611.222L102.041 518.54L183.749 584.509L205.499 481.771L225.687 584.828L308.387 520.107Z" fill="#FDE047"/>
<path d="M1002.1 191.411C1025.25 197.631 1024.76 230.646 1001.43 236.169V236.169C987.432 239.484 979.843 254.659 985.587 267.849V267.849C995.157 289.825 969.037 310.023 950.176 295.231V295.231C938.855 286.352 922.259 289.88 915.528 302.595V302.595C904.313 323.779 872.236 315.95 872.042 291.981V291.981C871.925 277.595 858.82 266.819 844.682 269.484V269.484C821.127 273.924 807.248 243.964 825.866 228.868V228.868C837.041 219.806 837.295 202.842 826.397 193.45V193.45C808.24 177.802 823.01 148.272 846.421 153.415V153.415C860.473 156.503 873.895 146.124 874.442 131.748V131.748C875.355 107.795 907.652 100.931 918.227 122.442V122.442C924.574 135.353 941.057 139.376 952.639 130.84V130.84C971.935 116.62 997.438 137.591 987.214 159.271V159.271C981.077 172.283 988.209 187.678 1002.1 191.411V191.411Z" fill="#EF4444"/>
<path d="M997.341 567.023C998.059 562.543 1003.89 561.259 1006.43 565.023L1025.17 592.88C1025.95 594.029 1027.16 594.806 1028.53 595.025L1061.68 600.341C1066.16 601.059 1067.45 606.893 1063.68 609.426L1035.83 628.173C1034.68 628.946 1033.9 630.162 1033.68 631.529L1028.36 664.683C1027.65 669.163 1021.81 670.448 1019.28 666.683L1000.53 638.826C999.76 637.677 998.544 636.9 997.177 636.681L964.023 631.365C959.543 630.647 958.258 624.813 962.023 622.28L989.88 603.533C991.029 602.76 991.806 601.544 992.025 600.177L997.341 567.023Z" fill="#028037"/>
<circle cx="141.5" cy="156.5" r="31.5" fill="#FF9F2A"/>
<circle cx="131.5" cy="221.5" r="21.5" fill="#FF9F2A"/>
<circle cx="155.5" cy="272.5" r="17.5" fill="#FF9F2A"/>
</g>
<defs>
<clipPath id="clip0_114_360">
<rect width="1280" height="832" fill="white"/>
</clipPath>
</defs>
</svg>
