<svg width="945" height="178" viewBox="0 0 945 178" fill="none" xmlns="http://www.w3.org/2000/svg">
<g filter="url(#filter0_d_203_98)">
<rect x="6.90039" y="6.90002" width="931" height="164" rx="17" fill="#1762EC"/>
</g>
<mask id="mask0_203_98" style="mask-type:alpha" maskUnits="userSpaceOnUse" x="6" y="6" width="864" height="165">
<rect x="6.90039" y="6.90002" width="863" height="164" rx="17" fill="#FDE047"/>
</mask>
<g mask="url(#mask0_203_98)">
<path d="M348.4 18.9L359.941 29.2469V29.2469L348.4 18.9ZM503.4 -16.6L507.954 -31.416L503.4 -16.6ZM818.901 154.566C823.963 161.469 833.663 162.962 840.567 157.899C847.47 152.837 848.962 143.137 843.9 136.234L831.4 145.4L818.901 154.566ZM42.9006 -16.6L27.9862 -20.8205C16.7071 19.0379 4.14003 79.6967 3.53908 131.897C3.24055 157.828 5.85663 183.239 14.1668 203.208C22.7568 223.85 38.3413 240.279 63.3324 242.82L64.9006 227.4L66.4687 211.98C56.0598 210.921 48.4235 204.841 42.7875 191.298C36.8716 177.082 34.2564 156.63 34.537 132.253C35.0944 83.8366 46.9273 26.0954 57.8149 -12.3796L42.9006 -16.6ZM64.9006 227.4L63.3324 242.82C85.9395 245.119 111.976 235.509 137.351 221.66C163.342 207.475 191.302 187.332 218.622 165.049C273.311 120.443 327.068 65.9136 359.941 29.2469L348.4 18.9L336.86 8.55304C304.733 44.3864 252.14 97.7068 199.029 141.026C172.449 162.705 146.147 181.543 122.5 194.449C98.2374 207.691 79.2616 213.28 66.4687 211.98L64.9006 227.4ZM348.4 18.9L359.941 29.2469C370.482 17.4895 384.111 3.79655 405.029 -4.21213C425.686 -12.1206 455.327 -15.1603 498.847 -1.78405L503.4 -16.6L507.954 -31.416C459.074 -46.4397 422.198 -43.9794 393.945 -33.1629C365.955 -22.4465 348.284 -4.18949 336.86 8.55304L348.4 18.9ZM503.4 -16.6L498.847 -1.78405C511.41 2.07746 516.269 6.62943 518.145 9.68545C519.821 12.417 520.686 16.5212 518.75 23.7351C516.756 31.1671 512.184 40.2264 505.231 50.8289C498.366 61.2968 489.76 72.4146 480.415 83.9609C462.306 106.334 440.534 131.224 427.844 152.607C421.517 163.269 416.098 175.165 415.52 186.989C415.216 193.198 416.234 199.634 419.341 205.725C422.45 211.822 427.199 216.683 432.997 220.425L441.4 207.4L449.803 194.375C447.852 193.117 447.206 192.13 446.956 191.64C446.703 191.145 446.397 190.254 446.482 188.505C446.683 184.412 448.901 177.867 454.503 168.428C465.673 149.607 484.932 127.653 504.511 103.464C514.009 91.7292 523.411 79.636 531.154 67.8285C538.809 56.1556 545.443 43.875 548.691 31.768C551.998 19.4429 552.14 5.80873 544.564 -6.53195C537.188 -18.5482 524.266 -26.4025 507.954 -31.416L503.4 -16.6ZM441.4 207.4L432.997 220.425C456.207 235.399 484.719 227.04 509.304 214.688C535.048 201.754 563.463 180.874 591.13 159.711C619.315 138.152 646.858 116.197 672.33 99.4033C684.993 91.0548 696.68 84.3022 707.198 79.6726C717.842 74.9876 726.353 72.9 732.9 72.9V57.4V41.9C720.323 41.9 707.318 45.75 694.71 51.2994C681.976 56.9041 668.674 64.6828 655.267 73.5218C628.599 91.1034 599.673 114.148 572.296 135.089C544.4 156.426 518.159 175.546 495.387 186.987C471.457 199.01 457.594 199.401 449.803 194.375L441.4 207.4ZM732.9 57.4V72.9C755.835 72.9 772.797 85.7461 786.773 103.491C793.738 112.334 799.57 121.923 804.743 130.932C809.522 139.253 814.554 148.639 818.901 154.566L831.4 145.4L843.9 136.234C840.913 132.161 837.399 125.547 831.626 115.493C826.247 106.127 819.519 94.9657 811.126 84.3094C794.385 63.0539 769.43 41.9 732.9 41.9V57.4Z" fill="#2F26B9"/>
</g>
<mask id="mask1_203_98" style="mask-type:alpha" maskUnits="userSpaceOnUse" x="6" y="6" width="891" height="165">
<rect x="6.90039" y="6.90002" width="890" height="164" rx="17" fill="#FDE047"/>
</mask>
<g mask="url(#mask1_203_98)">
<path d="M830.4 148.9C800.4 121.567 644.901 9.90002 574.4 59.4C537.229 85.4991 596.734 185.128 574.4 223.962C468.734 267.128 263.5 324.462 345.9 208.462C428.3 92.4616 354.567 37.7949 307.4 24.9616C266.067 18.7949 218.287 41.1718 171.9 88.4616C72.4004 189.9 77.4004 206.128 35.9004 223.962" stroke="#8A83F5" stroke-width="31" stroke-linecap="round"/>
</g>
<g filter="url(#filter1_d_203_98)">
<path fill-rule="evenodd" clip-rule="evenodd" d="M824.57 105.77L868.905 20.5613C869.67 19.0915 871.482 18.52 872.951 19.2848L888.4 28.9L841.9 114.4L824.258 106.751C824.304 106.411 824.409 106.079 824.57 105.77Z" fill="#FDE047"/>
<path d="M831.522 147.655L841.9 114.4L824.258 106.751C824.216 107.061 824.222 107.378 824.279 107.69L831.522 147.655Z" fill="#E7B630"/>
<path fill-rule="evenodd" clip-rule="evenodd" d="M841.9 114.4L869.184 130.132C869.437 129.898 869.65 129.621 869.812 129.311L914.147 44.1017C914.912 42.6319 914.341 40.8204 912.871 40.0556L888.4 28.9L841.9 114.4Z" fill="#E7B630"/>
<path d="M841.9 114.4L831.522 147.655L868.406 130.65C868.693 130.518 868.955 130.343 869.184 130.132L841.9 114.4Z" fill="#DDA42B"/>
</g>
<rect x="40.9004" y="60.9" width="307" height="62" fill="#1762EC"/>
<path d="M45.1904 115.9V67.475H54.9404L73.0754 91.525H68.5254L86.1404 67.475H95.8904V115.9H85.8154V78.59L89.8454 79.5L71.1904 103.55H69.8904L51.8854 79.5L55.2654 78.59V115.9H45.1904ZM108.572 130.2C107.533 130.2 106.514 130.113 105.517 129.94C104.564 129.767 103.719 129.485 102.982 129.095V121.1C103.589 121.273 104.304 121.425 105.128 121.555C105.951 121.685 106.709 121.75 107.403 121.75C109.309 121.75 110.674 121.295 111.498 120.385C112.321 119.518 112.993 118.522 113.513 117.395L115.918 111.87L115.788 119.995L100.187 80.41H110.653L120.988 108.555H117.088L127.423 80.41H137.888L122.678 119.215C121.724 121.642 120.554 123.678 119.168 125.325C117.781 126.972 116.199 128.185 114.423 128.965C112.689 129.788 110.739 130.2 108.572 130.2ZM164.078 115.9V67.475H171.813L197.813 101.73L193.653 102.705V67.475H203.728V115.9H195.928L170.383 81.385L174.153 80.41V115.9H164.078ZM228.506 116.68C224.996 116.68 221.789 115.878 218.886 114.275C216.026 112.672 213.729 110.483 211.996 107.71C210.306 104.893 209.461 101.708 209.461 98.155C209.461 94.5584 210.306 91.3734 211.996 88.6C213.729 85.8267 216.026 83.6384 218.886 82.035C221.789 80.4317 224.996 79.63 228.506 79.63C232.016 79.63 235.201 80.4317 238.061 82.035C240.921 83.6384 243.196 85.8267 244.886 88.6C246.619 91.3734 247.486 94.5584 247.486 98.155C247.486 101.708 246.619 104.893 244.886 107.71C243.196 110.483 240.921 112.672 238.061 114.275C235.201 115.878 232.016 116.68 228.506 116.68ZM228.506 107.905C230.282 107.905 231.821 107.493 233.121 106.67C234.464 105.847 235.504 104.698 236.241 103.225C237.021 101.752 237.411 100.062 237.411 98.155C237.411 96.2484 237.021 94.58 236.241 93.15C235.504 91.6767 234.464 90.5284 233.121 89.705C231.821 88.8384 230.282 88.405 228.506 88.405C226.729 88.405 225.169 88.8384 223.826 89.705C222.482 90.5284 221.421 91.6767 220.641 93.15C219.904 94.58 219.536 96.2484 219.536 98.155C219.536 100.062 219.904 101.752 220.641 103.225C221.421 104.698 222.482 105.847 223.826 106.67C225.169 107.493 226.729 107.905 228.506 107.905ZM268.975 116.29C264.685 116.29 261.348 115.142 258.965 112.845C256.625 110.505 255.455 107.255 255.455 103.095V88.86H249.475V80.41H249.8C251.62 80.41 253.006 79.955 253.96 79.045C254.956 78.135 255.455 76.77 255.455 74.95V72.35H265.205V80.41H273.525V88.86H265.205V102.445C265.205 103.658 265.421 104.677 265.855 105.5C266.288 106.28 266.96 106.865 267.87 107.255C268.78 107.645 269.906 107.84 271.25 107.84C271.553 107.84 271.9 107.818 272.29 107.775C272.68 107.732 273.091 107.688 273.525 107.645V115.9C272.875 115.987 272.138 116.073 271.315 116.16C270.491 116.247 269.711 116.29 268.975 116.29ZM295.618 116.68C291.848 116.68 288.576 115.857 285.803 114.21C283.03 112.52 280.885 110.267 279.368 107.45C277.851 104.633 277.093 101.513 277.093 98.09C277.093 94.5367 277.873 91.3734 279.433 88.6C281.036 85.8267 283.181 83.6384 285.868 82.035C288.555 80.4317 291.588 79.63 294.968 79.63C297.785 79.63 300.276 80.085 302.443 80.995C304.61 81.8617 306.43 83.0967 307.903 84.7C309.42 86.3034 310.568 88.1667 311.348 90.29C312.128 92.37 312.518 94.645 312.518 97.115C312.518 97.8084 312.475 98.5017 312.388 99.195C312.345 99.845 312.236 100.408 312.063 100.885H285.478V93.735H306.538L301.923 97.115C302.356 95.2517 302.335 93.605 301.858 92.175C301.381 90.7017 300.536 89.5534 299.323 88.73C298.153 87.8634 296.701 87.43 294.968 87.43C293.278 87.43 291.826 87.8417 290.613 88.665C289.4 89.4884 288.49 90.7017 287.883 92.305C287.276 93.9084 287.038 95.8584 287.168 98.155C286.995 100.148 287.233 101.903 287.883 103.42C288.533 104.937 289.53 106.128 290.873 106.995C292.216 107.818 293.841 108.23 295.748 108.23C297.481 108.23 298.955 107.883 300.168 107.19C301.425 106.497 302.4 105.543 303.093 104.33L310.893 108.035C310.2 109.768 309.095 111.285 307.578 112.585C306.105 113.885 304.35 114.903 302.313 115.64C300.276 116.333 298.045 116.68 295.618 116.68ZM331.454 116.68C327.554 116.68 324.153 115.77 321.249 113.95C318.389 112.087 316.439 109.595 315.399 106.475L322.549 103.095C323.459 105.002 324.694 106.497 326.254 107.58C327.814 108.663 329.548 109.205 331.454 109.205C332.841 109.205 333.903 108.923 334.639 108.36C335.376 107.797 335.744 107.017 335.744 106.02C335.744 105.5 335.614 105.067 335.354 104.72C335.094 104.33 334.704 103.983 334.184 103.68C333.664 103.377 333.014 103.117 332.234 102.9L326.189 101.21C323.286 100.387 321.054 99.065 319.494 97.245C317.934 95.3817 317.154 93.1934 317.154 90.68C317.154 88.47 317.718 86.5417 318.844 84.895C319.971 83.2484 321.553 81.97 323.589 81.06C325.626 80.1067 327.966 79.63 330.609 79.63C334.076 79.63 337.109 80.4534 339.709 82.1C342.353 83.7034 344.216 85.9784 345.299 88.925L338.084 92.305C337.564 90.8317 336.611 89.6617 335.224 88.795C333.881 87.885 332.343 87.43 330.609 87.43C329.353 87.43 328.356 87.69 327.619 88.21C326.926 88.73 326.579 89.445 326.579 90.355C326.579 90.8317 326.709 91.265 326.969 91.655C327.229 92.045 327.641 92.3917 328.204 92.695C328.811 92.9984 329.548 93.28 330.414 93.54L336.069 95.23C339.016 96.0967 341.269 97.4184 342.829 99.195C344.389 100.928 345.169 103.073 345.169 105.63C345.169 107.84 344.584 109.768 343.414 111.415C342.288 113.062 340.706 114.362 338.669 115.315C336.633 116.225 334.228 116.68 331.454 116.68Z" fill="white"/>
<defs>
<filter id="filter0_d_203_98" x="0.00039053" y="2.43187e-05" width="944.8" height="177.8" filterUnits="userSpaceOnUse" color-interpolation-filters="sRGB">
<feFlood flood-opacity="0" result="BackgroundImageFix"/>
<feColorMatrix in="SourceAlpha" type="matrix" values="0 0 0 0 0 0 0 0 0 0 0 0 0 0 0 0 0 0 127 0" result="hardAlpha"/>
<feOffset/>
<feGaussianBlur stdDeviation="3.45"/>
<feComposite in2="hardAlpha" operator="out"/>
<feColorMatrix type="matrix" values="0 0 0 0 0 0 0 0 0 0 0 0 0 0 0 0 0 0 0.1 0"/>
<feBlend mode="normal" in2="BackgroundImageFix" result="effect1_dropShadow_203_98"/>
<feBlend mode="normal" in="SourceGraphic" in2="effect1_dropShadow_203_98" result="shape"/>
</filter>
<filter id="filter1_d_203_98" x="824.23" y="18.9454" width="92.2559" height="132.709" filterUnits="userSpaceOnUse" color-interpolation-filters="sRGB">
<feFlood flood-opacity="0" result="BackgroundImageFix"/>
<feColorMatrix in="SourceAlpha" type="matrix" values="0 0 0 0 0 0 0 0 0 0 0 0 0 0 0 0 0 0 127 0" result="hardAlpha"/>
<feOffset dx="2" dy="4"/>
<feComposite in2="hardAlpha" operator="out"/>
<feColorMatrix type="matrix" values="0 0 0 0 0.669872 0 0 0 0 0.467628 0 0 0 0 0.221143 0 0 0 1 0"/>
<feBlend mode="normal" in2="BackgroundImageFix" result="effect1_dropShadow_203_98"/>
<feBlend mode="normal" in="SourceGraphic" in2="effect1_dropShadow_203_98" result="shape"/>
</filter>
</defs>
</svg>
